<svg xmlns="http://www.w3.org/2000/svg" width="1000" height="1000" xmlns:v="https://vecta.io/nano"><path d="M.2 0h1000v1000H.2z"/><g fill="#fff"><path d="M617.1 409.2h-52v25.9h-25.9V487h25.9v26h52v-26H643v-51.9h-25.9v-25.9zM435.4 513v-26h25.9v-51.9h-25.9v-25.9h-52v25.9h-25.9V487h25.9v26h52zm0 26h26v26h-26z"/><path d="M461.3 564.9h77.9v26h-77.9z"/><path d="M539.2 539h26v26h-26zm-181.7 0h26v26h-26zm259.6 0h26v26h-26zm39.6-259.4H509.6v-40.1l42.6-42.6c3.7-3.7 3.7-9.6 0-13.3l-45.3-45.3c-1.8-1.8-4.2-2.8-6.7-2.8s-4.9 1-6.7 2.8l-45.3 45.3c-3.7 3.7-3.7 9.6 0 13.3l42.6 42.6v40.1H343.7c-35.3 0-64 28.7-64 64v313c0 35.3 28.7 64 64 64h313c35.3 0 64-28.7 64-64v-313c0-35.3-28.7-64-64-64zM500.2 158.3l32 32-32 32-32-32 32-32zm201.7 498.2c0 24.9-20.3 45.2-45.2 45.2h-313c-24.9 0-45.2-20.3-45.2-45.2v-313c0-24.9 20.3-45.1 45.2-45.1h313c24.9 0 45.2 20.3 45.2 45.1v313zM838 480.4l-64.2-64.3c-3.7-3.7-9.6-3.7-13.3 0s-3.7 9.6 0 13.3l57.6 57.6-57.6 57.6c-3.7 3.7-3.7 9.6 0 13.3 1.8 1.8 4.2 2.8 6.7 2.8s4.8-.9 6.7-2.8l64.2-64.2c3.7-3.7 3.7-9.6 0-13.3zm-598-64.3c-3.7-3.7-9.6-3.7-13.3 0l-64.2 64.3c-3.7 3.7-3.7 9.6 0 13.3l64.2 64.2c1.8 1.8 4.3 2.8 6.7 2.8a9.39 9.39 0 0 0 6.7-2.8c3.7-3.7 3.7-9.6 0-13.3L182.5 487l57.6-57.6c3.7-3.7 3.7-9.6 0-13.3z"/></g></svg>